<mxfile host="app.diagrams.net" modified="2023-05-20T23:27:09.382Z" agent="Mozilla/5.0 (Windows NT 10.0; Win64; x64; rv:109.0) Gecko/20100101 Firefox/113.0" version="21.3.2" etag="yxK3TD3IugmSyHGeDDXo" type="github">
  <diagram name="Page-1" id="ad6pv2XajA0SReO6DX2X">
    <mxGraphModel>
      <root>
        <mxCell id="0" />
        <mxCell id="1" parent="0" />
      </root>
    </mxGraphModel>
  </diagram>
</mxfile>
